<svg xmlns="http://www.w3.org/2000/svg" xmlns:xlink="http://www.w3.org/1999/xlink" width="163.949" height="25.258" viewBox="0 0 163.949 25.258">
  <defs>
    <clipPath id="clip-path">
      <rect data-name="Rectángulo 281" width="163.949" height="25.258" transform="translate(0 0)" fill="#00d2d2"/>
    </clipPath>
  </defs>
  <g id="Grupo_936" data-name="Grupo 936" clip-path="url(#clip-path)">
    <path data-name="Trazado 731" d="M0,3.905l8.024-.968V22.365q0,3.195,3.787,3.808-1.863,1.775-6.355,1.775Q0,27.948,0,24.14Z" transform="translate(0 -2.874)" fill="#00d2d2" fill-rule="evenodd"/>
    <path data-name="Trazado 732" d="M540.117,357.092a9.461,9.461,0,0,1-3.868,1.473,28.454,28.454,0,0,1-5.721.561,23,23,0,0,1-8.841-1.377q-3.218-1.393-3.218-3.94,0-2.979,4.518-4.66,4.55-1.682,12.9-1.681a28.191,28.191,0,0,1,3.38.24q0-3.027-7.768-3.027a33.036,33.036,0,0,0-7.671.753l-1.755-3.107a43.833,43.833,0,0,1,9.979-.993q7.962,0,11.669,1.794,3.705,1.778,3.705,6.758v3.667q0,3.428,2.8,4.308a4.449,4.449,0,0,1-2.243,1.057,17.228,17.228,0,0,1-2.828.208,7.485,7.485,0,0,1-3.153-.641,4.341,4.341,0,0,1-1.885-1.393m-.78-6.358q-2.081-.208-3.12-.208-9.622,0-9.621,3.107,0,2.306,5.428,2.306,7.313,0,7.313-3.6Z" transform="translate(-507.361 -334.02)" fill="#00d2d2" fill-rule="evenodd"/>
    <path data-name="Trazado 733" d="M2063.044,354.513v-9.987a3.462,3.462,0,0,0-1.745-3.227q-1.713-1.017-5.629-1.016a16.617,16.617,0,0,0-3.884.5,10.659,10.659,0,0,0-3.193,1.242v12.488h-8.229V337.234h5.925l1.514,1.613q3.358-1.936,9.908-1.936,6.286,0,9.908,1.855,3.654,1.839,3.654,5.147v10.6Z" transform="translate(-1996.645 -329.692)" fill="#00d2d2" fill-rule="evenodd"/>
    <path data-name="Trazado 734" d="M3515.218,123.479h-4.064v-3.234h4.064v-3.508l8.193-1.48v4.988h9.635v3.234h-9.635v7.546a2.9,2.9,0,0,0,1.18,2.623,8.132,8.132,0,0,0,4.13.756,18.581,18.581,0,0,0,5.506-.788v3.7a51.92,51.92,0,0,1-8.128.483,18.024,18.024,0,0,1-8.062-1.448,4.535,4.535,0,0,1-2.819-4.151Z" transform="translate(-3435.92 -112.787)" fill="#00d2d2" fill-rule="evenodd"/>
    <path data-name="Trazado 735" d="M4591.6,326.029h16.081c-.265-2.495-1.117-5.107-7.66-5.107-7.013,0-8.042,2.935-8.421,5.107m22.536,2.23h-22.653c.732,6.018,8.656,6.488,12.091,6.488,3.223,0,8.744-.294,10.357-.911l-.029,2.259a84.114,84.114,0,0,1-11.3.911c-15.493,0-18.042-6.505-18.042-9.252q0-4.056,4.411-6.574a22.771,22.771,0,0,1,11.02-2.605c14.791,0,14.144,7.631,14.144,9.684" transform="translate(-4486.322 -311.749)" fill="#00d2d2" fill-rule="evenodd"/>
    <path data-name="Trazado 736" d="M6162.191,24.882,6151.8,16.994l-3.959,2.066v5.823h-8.247V.974L6147.841,0v14.15l11.777-6.685h9.93l-11.942,6.6,14.383,10.816Z" transform="translate(-6008.04 0.002)" fill="#00d2d2" fill-rule="evenodd"/>
  </g>
</svg>
